# xmcd CD database file generated by OrangeCD 5.2
#
# Track frame offsets:
#	150
#	22508
#	43720
#	65789
#	86792
#	93617
#	112989
#	134589
#	152290
#	172314
#	188214
#	212664
#	235386
#
# Disc length: 3423 seconds
#
# Revision: 0
# Processed by: cddbd v1.5.1PL0 Copyright (c) Steve Scherf et al.
# Submitted via: OrangeCD 5.2
#
DISCID=b20d5d0d
DTITLE=Weakener - Suffocation
DYEAR=1900
DGENRE=Country
TTITLE0=Circulation
TTITLE1=Derelict
TTITLE2=These Structures Are Uneven
TTITLE3=Tourette Syndrome
TTITLE4=First Obsession
TTITLE5=Faceless
TTITLE6=Red Clocks
TTITLE7=Absence of Breath
TTITLE8=Forced to Stand Still
TTITLE9=Sheep
TTITLE10=I Have no Mouth
TTITLE11=The Girl in the Freezer
TTITLE12=Derelict (Platelet Remix)
EXTD=
EXTT0=
EXTT1=
EXTT2=
EXTT3=
EXTT4=
EXTT5=
EXTT6=
EXTT7=
EXTT8=
EXTT9=
EXTT10=
EXTT11=
EXTT12=
PLAYORDER=
